<?xml version="1.0" encoding="iso-8859-1"?>
<!-- Generator: Adobe Illustrator 22.0.0, SVG Export Plug-In . SVG Version: 6.00 Build 0)  -->
<svg version="1.1" id="Layer_1" xmlns="http://www.w3.org/2000/svg" xmlns:xlink="http://www.w3.org/1999/xlink" x="0px" y="0px"
	 viewBox="0 0 100 100" style="enable-background:new 0 0 100 100;" xml:space="preserve">
<g>
	<g>
		<g>
			<path style="fill:#770808;" d="M80.507,56.036L41.051,79.304L1.595,56.036c0-0.019,0-0.045,0.007-0.064
				c0.032-0.148,2.209-1.966,5.53-4.664c0.032-0.026,0.058-0.051,0.09-0.077c10.895-8.846,33.829-26.961,33.829-26.961
				s22.933,18.116,33.828,26.961c3.373,2.737,5.59,4.587,5.621,4.741C80.507,55.991,80.507,56.017,80.507,56.036z"/>
			<g>
				<path style="fill:#FFFFFF;" d="M57.277,5H14.707c-3.652,0-6.611,2.96-6.611,6.611v64.366c0,3.651,2.959,6.612,6.611,6.612H68.05
					c3.651,0,6.611-2.961,6.611-6.612V22.383L57.277,5z"/>
				<path style="fill:#D3D3D3;" d="M57.277,15.772c0,3.651,2.96,6.611,6.611,6.611h10.772L57.277,5V15.772z"/>
				<path style="fill:#B7B7B7;" d="M34.865,15.88H20.861c-1.489,0-2.696,1.207-2.696,2.696v14.004c0,1.489,1.207,2.697,2.697,2.697
					h14.004c1.489,0,2.696-1.207,2.696-2.696V18.577C37.562,17.088,36.355,15.88,34.865,15.88z"/>
				<path style="fill:#D9DBDB;" d="M55.327,40.668H20.086c-1.048,0-1.898,0.849-1.898,1.898l0,0c0,1.048,0.849,1.898,1.898,1.898
					h35.241c1.047,0,1.898-0.849,1.898-1.898l0,0C57.224,41.517,56.374,40.668,55.327,40.668z"/>
				<path style="fill:#D9DBDB;" d="M55.327,50.121H20.086c-1.048,0-1.898,0.849-1.898,1.898l0,0c0,1.048,0.849,1.898,1.898,1.898
					h35.241c1.047,0,1.898-0.85,1.898-1.898l0,0C57.224,50.97,56.374,50.121,55.327,50.121z"/>
				<path style="fill:#D9DBDB;" d="M39.322,59.29H20.086c-1.048,0-1.898,0.85-1.898,1.898l0,0c0,1.048,0.849,1.898,1.898,1.898
					h19.236c1.048,0,1.898-0.849,1.898-1.898l0,0C41.22,60.14,40.37,59.29,39.322,59.29z"/>
			</g>
			<g>
				<path style="fill:#EA2E26;" d="M80.511,56.034v37.854c0,2.646-2.163,4.808-4.808,4.808H6.395c-2.646,0-4.796-2.162-4.796-4.808
					V56.034l39.455,23.264L80.511,56.034z"/>
				<path style="fill:#C51E16;" d="M79.178,97.189L53.782,71.794l-12.728,7.504l-12.732-7.508L2.925,97.187
					c0.874,0.924,2.101,1.508,3.469,1.508h69.308C77.07,98.695,78.3,98.112,79.178,97.189z"/>
			</g>
		</g>
	</g>
</g>
<g>
	<g>
		<polygon style="fill:#FFB031;" points="97.869,3.046 89.886,21.776 84.052,17.784 80.67,22.697 80.06,14.41 73,10.107 		"/>
		<polygon style="fill:#FF9433;" points="82.759,16.898 89.886,21.776 84.052,17.784 80.67,22.697 80.06,14.41 91.312,7.709 		"/>
		<polygon style="fill:#FF7733;" points="80.21,16.441 91.312,7.709 80.06,14.41 		"/>
	</g>
</g>
</svg>
